<?xml version="1.0" encoding="UTF-8" standalone="no"?>
<!-- Created with Inkscape (http://www.inkscape.org/) -->

<svg
   xmlns:dc="http://purl.org/dc/elements/1.1/"
   xmlns:cc="http://creativecommons.org/ns#"
   xmlns:rdf="http://www.w3.org/1999/02/22-rdf-syntax-ns#"
   xmlns:svg="http://www.w3.org/2000/svg"
   xmlns="http://www.w3.org/2000/svg"
   xmlns:sodipodi="http://sodipodi.sourceforge.net/DTD/sodipodi-0.dtd"
   xmlns:inkscape="http://www.inkscape.org/namespaces/inkscape"
   width="364.84375"
   height="148.01237"
   id="svg5683"
   version="1.1"
   inkscape:version="0.48.4 r9939"
   sodipodi:docname="New document 35">
  <defs
     id="defs5685" />
  <sodipodi:namedview
     id="base"
     pagecolor="#ffffff"
     bordercolor="#666666"
     borderopacity="1.0"
     inkscape:pageopacity="0.0"
     inkscape:pageshadow="2"
     inkscape:zoom="0.35"
     inkscape:cx="182.42187"
     inkscape:cy="74.006149"
     inkscape:document-units="px"
     inkscape:current-layer="layer1"
     showgrid="false"
     fit-margin-top="0"
     fit-margin-left="0"
     fit-margin-right="0"
     fit-margin-bottom="0"
     inkscape:window-width="472"
     inkscape:window-height="363"
     inkscape:window-x="65"
     inkscape:window-y="612"
     inkscape:window-maximized="0" />
  <metadata
     id="metadata5688">
    <rdf:RDF>
      <cc:Work
         rdf:about="">
        <dc:format>image/svg+xml</dc:format>
        <dc:type
           rdf:resource="http://purl.org/dc/dcmitype/StillImage" />
        <dc:title></dc:title>
      </cc:Work>
    </rdf:RDF>
  </metadata>
  <g
     inkscape:label="Layer 1"
     inkscape:groupmode="layer"
     id="layer1"
     transform="translate(-192.57812,-458.35596)">
    <g
       id="g5592"
       transform="translate(-18.75,-5263.75)">
      <rect
         y="5722.106"
         x="211.32812"
         height="148.01237"
         width="364.84375"
         id="rect5325-9-4"
         style="fill:#2b75a7;fill-opacity:1;stroke:none" />
      <g
         id="g5502-4-0"
         transform="translate(752.76181,-2153.9922)">
        <path
           transform="translate(-2.3711819,251.6483)"
           sodipodi:type="arc"
           style="fill:#59abe3;fill-opacity:1;stroke:none"
           id="path5428-5-2-2"
           sodipodi:cx="-356.64062"
           sodipodi:cy="7698.4561"
           sodipodi:rx="21.875"
           sodipodi:ry="21.875"
           d="m -334.76562,7698.4561 c 0,12.0812 -9.79378,21.875 -21.875,21.875 -12.08123,0 -21.875,-9.7938 -21.875,-21.875 0,-12.0813 9.79377,-21.875 21.875,-21.875 12.07478,0 21.86588,9.7837 21.87499,21.8585"
           sodipodi:start="0"
           sodipodi:end="6.2824309"
           sodipodi:open="true" />
        <g
           id="g5440-2-4-2"
           transform="translate(-3.1998219,255.0496)">
          <path
             style="fill:#3b8dc5;fill-opacity:1;stroke:none"
             d="m -357.96875,7933.7812 -0.0312,2.875 -8.46875,9.6563 -0.21875,-0.094 -6.5,8.7812 16.8125,16.8125 c 9.13546,-1.1014 16.56029,-7.8344 18.65625,-16.625 l -20.25,-21.4063 z"
             transform="translate(3.1998219,-255.0496)"
             id="path5430-4-0-4"
             inkscape:connector-curvature="0" />
          <g
             id="g5435-9-2-0">
            <path
               style="fill:#ffffff;fill-opacity:1;stroke:none"
               d="m -355.01816,7681.8372 c -2.23736,3.7122 -1.91541,16.9406 0.53057,17.5298 l -16.0133,0.7843 c 3.49273,-6.6598 9.64797,-13.6618 15.48273,-18.3141 z"
               id="path3766-0-5-5-3-4-8"
               inkscape:connector-curvature="0"
               sodipodi:nodetypes="cccc" />
            <path
               style="fill:#ffffff;fill-opacity:1;stroke:none"
               d="m -354.79899,7678.7218 c -0.0529,7.3333 0.46628,15.1314 0.375,22.0313 l -8.0625,0.03 0.712,1.0236 14.78795,0.1956 0,-1.1875 -6.63839,0 0.0357,-1.4866 9.32143,-0.2946 c -2.8775,-4.5088 -7.5696,-10.753 -9.47308,-15.0488 -0.75997,-1.7151 -0.63237,-3.0186 -1.05817,-5.2638 z"
               id="path3768-0-6-3-2-9-4"
               inkscape:connector-curvature="0"
               sodipodi:nodetypes="cccccccccscc" />
            <path
               style="fill:#ffffff;fill-opacity:1;stroke:none"
               d="m -370.61054,7702.192 c 0,0 2.79556,3.1206 4.79823,3.3137 5.79404,0.5584 23.71842,-0.345 23.75708,-0.1448 l 0.94702,-2.5885 c -10.2391,0.4856 -19.93275,0.2725 -29.50233,-0.5804 z"
               id="path3772-3-4-7-1-7-4"
               inkscape:connector-curvature="0"
               sodipodi:nodetypes="csccc" />
          </g>
        </g>
      </g>
    </g>
  </g>
</svg>
